<svg version="1.1" id="Layer_1" xmlns="http://www.w3.org/2000/svg" xmlns:xlink="http://www.w3.org/1999/xlink" x="0px" y="0px"
	 width="100%" viewBox="0 0 84 84" enable-background="new 0 0 84 84" xml:space="preserve">
<path fill="#6767F9" opacity="1.000000" stroke="none" 
	d="
M1.000000,68.000000 
	C1.000000,52.645771 1.000000,37.291542 1.313878,21.615398 
	C13.946983,28.216866 26.313013,35.059284 38.546459,42.131062 
	C41.031757,43.567738 42.818184,43.718182 45.341080,42.212448 
	C52.476219,37.954002 59.898399,34.176510 67.033684,29.918291 
	C72.212265,26.827805 77.114052,23.273512 82.548721,19.962385 
	C83.638794,19.999161 84.319397,19.999580 85.000000,20.000000 
	C85.000000,35.354229 85.000000,50.708454 84.755775,66.168671 
	C81.064888,67.788292 77.618225,69.301933 74.183487,70.359604 
	C74.195419,56.660477 74.195419,43.417320 74.195419,28.878794 
	C72.154358,30.322659 71.070061,31.089697 69.671219,32.016010 
	C60.242020,37.170120 51.127369,42.164951 41.697514,46.989113 
	C32.297005,41.571262 23.211699,36.324078 13.831808,30.815495 
	C9.632448,29.448729 10.958836,32.613171 10.940212,34.079346 
	C10.780279,46.671310 10.786156,59.265385 10.428759,71.726341 
	C7.076670,70.395905 4.038335,69.197952 1.000000,68.000000 
z"/>
<path fill="#858789" opacity="1.000000" stroke="none" 
	d="
M42.012714,47.159779 
	C51.127369,42.164951 60.242020,37.170120 70.001465,32.306328 
	C70.815834,38.551750 70.934952,44.668060 71.168503,50.779995 
	C71.427223,57.550465 71.790581,64.316940 72.052315,71.437492 
	C69.065720,73.870621 66.108078,75.914543 63.211987,78.042229 
	C60.111118,80.320374 57.068207,82.677399 54.000000,85.000000 
	C50.307091,85.000000 46.614182,85.000000 42.472458,84.531456 
	C42.020000,71.761871 42.016357,59.460823 42.012714,47.159779 
M49.179058,59.322433 
	C50.480320,60.811485 51.781582,62.300537 53.220337,63.946922 
	C51.856613,67.081062 50.460804,70.288925 49.048477,73.534760 
	C54.710712,75.035515 53.516502,61.198914 60.834873,68.720985 
	C62.799107,67.389511 64.446533,66.272789 66.331551,64.995018 
	C63.941788,63.141933 61.706944,61.408981 59.479439,59.681721 
	C61.153023,56.090359 62.669548,52.836037 64.186066,49.581718 
	C63.715069,49.317219 63.244068,49.052719 62.773067,48.788219 
	C61.746941,50.119549 60.550777,51.353798 59.725288,52.799679 
	C56.777084,57.963612 56.824696,57.990791 51.717293,53.816704 
	C50.688992,55.494682 49.670761,57.156235 49.179058,59.322433 
z"/>
<path fill="#BCBEBF" opacity="1.000000" stroke="none" 
	d="
M41.697514,46.989113 
	C42.016357,59.460823 42.020000,71.761871 42.011826,84.531456 
	C38.638714,85.000000 35.277424,85.000000 31.769302,84.716759 
	C30.299990,83.592064 28.984606,82.739204 27.653780,81.911163 
	C22.411720,78.649559 17.164808,75.395767 11.984669,71.714600 
	C12.382475,69.195724 12.979383,67.104263 13.002715,65.006424 
	C13.107266,55.605675 12.989855,46.202435 13.097548,36.801758 
	C13.119452,34.889793 13.767170,32.984993 14.126390,31.076891 
	C23.211699,36.324078 32.297005,41.571262 41.697514,46.989113 
M23.099514,68.563927 
	C24.426332,69.573929 25.753151,70.583923 27.653393,72.030426 
	C28.327902,67.411865 25.697311,66.750305 23.020470,65.083488 
	C23.072243,61.056145 23.124018,57.028797 23.791819,53.011059 
	C28.597708,52.468071 29.867464,55.442398 29.974274,59.382030 
	C30.077456,63.187889 29.998426,66.998688 29.659224,71.261002 
	C31.788805,72.522888 33.918385,73.784775 36.898563,75.550682 
	C36.898563,70.768616 36.637783,66.989754 36.972034,63.264286 
	C37.305199,59.550941 36.238731,56.832729 32.853210,54.314251 
	C30.108734,52.917599 27.364260,51.520947 23.892563,50.047703 
	C22.174206,49.261776 20.455847,48.475849 18.039324,47.370602 
	C18.039324,51.765999 18.320517,55.365547 17.967451,58.901772 
	C17.535614,63.226925 19.004852,66.166397 23.099514,68.563927 
z"/>
<path fill="#CBCBFA" opacity="1.000000" stroke="none" 
	d="
M33.000000,1.000000 
	C39.021152,1.000000 45.042305,1.000000 51.215202,1.274504 
	C56.713326,4.718833 62.135319,7.769984 67.374420,11.108179 
	C70.022789,12.795640 72.340324,15.002308 74.447052,16.888645 
	C63.520481,22.382311 52.954311,27.961552 42.022564,33.390907 
	C37.901512,31.213413 34.058342,29.330944 30.409744,27.126453 
	C23.844687,23.159826 17.396282,19.000132 11.054750,14.595779 
	C18.021091,10.510478 24.845842,6.775311 31.619291,2.949319 
	C32.246452,2.595067 32.547520,1.663503 33.000000,1.000000 
M55.714935,10.669321 
	C55.185772,10.402254 54.656612,10.135187 53.605789,9.417207 
	C52.318474,8.974212 51.031158,8.531218 49.053265,7.980853 
	C47.428017,8.122748 45.576260,7.808583 44.216064,8.484145 
	C37.740906,11.700140 31.399454,15.185346 24.672758,18.341047 
	C24.344393,18.496828 24.016027,18.652609 23.687660,18.808388 
	C24.455055,19.206135 25.222448,19.603880 25.999771,19.998028 
	C25.999771,19.998028 26.001917,20.007013 26.443213,20.453711 
	C26.839014,20.575586 27.234816,20.697464 27.843029,20.748856 
	C27.843029,20.748856 27.963089,20.937729 28.272055,21.490538 
	C29.873079,22.008837 31.474102,22.527136 33.258129,23.745527 
	C35.325172,23.833797 37.722511,24.645163 39.399357,23.879206 
	C45.190781,21.233763 50.762840,18.094765 56.314194,14.959163 
	C56.828442,14.668697 56.603462,13.069474 56.502235,11.762159 
	C56.244423,11.647328 56.094074,11.450422 55.714935,10.669321 
z"/>
<path fill="#8F8FFD" opacity="1.000000" stroke="none" 
	d="
M82.139259,19.926029 
	C77.114052,23.273512 72.212265,26.827805 67.033684,29.918291 
	C59.898399,34.176510 52.476219,37.954002 45.341080,42.212448 
	C42.818184,43.718182 41.031757,43.567738 38.546459,42.131062 
	C26.313013,35.059284 13.946983,28.216866 1.313878,21.146740 
	C1.000000,20.555555 1.000000,20.111111 1.385235,19.334354 
	C4.469274,18.658545 7.168078,18.315046 9.972439,18.302456 
	C20.714296,24.760685 31.350594,30.888012 42.350243,36.993458 
	C50.782104,32.539814 58.912014,28.214743 66.889114,23.624136 
	C70.110573,21.770273 72.997955,19.335888 76.394348,17.090866 
	C78.547302,17.986038 80.343277,18.956034 82.139259,19.926029 
z"/>
<path fill="#000000" opacity="1.000000" stroke="none" 
	d="
M82.548721,19.962385 
	C80.343277,18.956034 78.547302,17.986038 76.091072,17.016010 
	C75.223030,17.002056 75.015236,16.988136 74.807449,16.974218 
	C72.340324,15.002308 70.022789,12.795640 67.374420,11.108179 
	C62.135319,7.769984 56.713326,4.718833 51.683472,1.274504 
	C62.906284,1.000000 73.812569,1.000000 85.000000,1.000000 
	C85.000000,7.017518 85.000000,13.039383 85.000000,19.530624 
	C84.319397,19.999580 83.638794,19.999161 82.548721,19.962385 
z"/>
<path fill="#000000" opacity="1.000000" stroke="none" 
	d="
M9.866882,17.971550 
	C7.168078,18.315046 4.469274,18.658545 1.385235,19.001022 
	C1.000000,13.053009 1.000000,7.106018 1.000000,1.000000 
	C11.353794,1.000000 21.708239,1.000000 32.531342,1.000000 
	C32.547520,1.663503 32.246452,2.595067 31.619291,2.949319 
	C24.845842,6.775311 18.021091,10.510478 10.741023,14.745741 
	C10.136752,16.137861 10.001818,17.054705 9.866882,17.971550 
z"/>
<path fill="#000000" opacity="1.000000" stroke="none" 
	d="
M54.468658,85.000000 
	C57.068207,82.677399 60.111118,80.320374 63.211987,78.042229 
	C66.108078,75.914543 69.065720,73.870621 72.396194,71.390366 
	C73.254608,70.932465 73.713081,70.874016 74.171562,70.815567 
	C77.618225,69.301933 81.064888,67.788292 84.755775,66.637329 
	C85.000000,72.945900 85.000000,78.891800 85.000000,85.000000 
	C74.979568,85.000000 64.958443,85.000000 54.468658,85.000000 
z"/>
<path fill="#000000" opacity="1.000000" stroke="none" 
	d="
M11.919694,72.139076 
	C17.164808,75.395767 22.411720,78.649559 27.653780,81.911163 
	C28.984606,82.739204 30.299990,83.592064 31.311234,84.716759 
	C21.094820,85.000000 11.189639,85.000000 1.000000,85.000000 
	C1.000000,79.650299 1.000000,74.295609 1.000000,68.470459 
	C4.038335,69.197952 7.076670,70.395905 10.722226,71.803680 
	C11.526196,72.055359 11.722945,72.097214 11.919694,72.139076 
z"/>
<path fill="#404243" opacity="1.000000" stroke="none" 
	d="
M74.183487,70.359604 
	C73.713081,70.874016 73.254608,70.932465 72.452248,71.038040 
	C71.790581,64.316940 71.427223,57.550465 71.168503,50.779995 
	C70.934952,44.668060 70.815834,38.551750 70.316010,32.147053 
	C71.070061,31.089697 72.154358,30.322659 74.195419,28.878794 
	C74.195419,43.417320 74.195419,56.660477 74.183487,70.359604 
z"/>
<path fill="#96989B" opacity="1.000000" stroke="none" 
	d="
M11.984669,71.714600 
	C11.722945,72.097214 11.526196,72.055359 11.035980,71.936157 
	C10.786156,59.265385 10.780279,46.671310 10.940212,34.079346 
	C10.958836,32.613171 9.632448,29.448729 13.831808,30.815495 
	C13.767170,32.984993 13.119452,34.889793 13.097548,36.801758 
	C12.989855,46.202435 13.107266,55.605675 13.002715,65.006424 
	C12.979383,67.104263 12.382475,69.195724 11.984669,71.714600 
z"/>
<path fill="#0B0B0B" opacity="1.000000" stroke="none" 
	d="
M48.915794,59.070107 
	C49.670761,57.156235 50.688992,55.494682 51.717293,53.816704 
	C56.824696,57.990791 56.777084,57.963612 59.725288,52.799679 
	C60.550777,51.353798 61.746941,50.119549 62.773067,48.788219 
	C63.244068,49.052719 63.715069,49.317219 64.186066,49.581718 
	C62.669548,52.836037 61.153023,56.090359 59.479439,59.681721 
	C61.706944,61.408981 63.941788,63.141933 66.331551,64.995018 
	C64.446533,66.272789 62.799107,67.389511 60.834873,68.720985 
	C53.516502,61.198914 54.710712,75.035515 49.048477,73.534760 
	C50.460804,70.288925 51.856613,67.081062 53.220337,63.946922 
	C51.781582,62.300537 50.480320,60.811485 48.915794,59.070107 
z"/>
<path fill="#0E0E0E" opacity="1.000000" stroke="none" 
	d="
M33.000107,54.992142 
	C36.238731,56.832729 37.305199,59.550941 36.972034,63.264286 
	C36.637783,66.989754 36.898563,70.768616 36.898563,75.550682 
	C33.918385,73.784775 31.788805,72.522888 30.245087,71.178322 
	C31.146933,66.260483 31.426620,61.422306 31.827787,56.594227 
	C31.874537,56.031612 32.593037,55.524815 33.000107,54.992142 
z"/>
<path fill="#0B0B0B" opacity="1.000000" stroke="none" 
	d="
M23.175793,53.001453 
	C23.124018,57.028797 23.072243,61.056145 23.023586,65.851807 
	C23.004616,67.044350 22.982529,67.468582 22.960440,67.892807 
	C19.004852,66.166397 17.535614,63.226925 17.967451,58.901772 
	C18.320517,55.365547 18.039324,51.765999 18.039324,47.370602 
	C20.455847,48.475849 22.174206,49.261776 24.123150,50.358055 
	C23.961088,51.446087 23.568441,52.223770 23.175793,53.001453 
z"/>
<path fill="#BBBDBE" opacity="1.000000" stroke="none" 
	d="
M23.483807,53.006256 
	C23.568441,52.223770 23.961088,51.446087 24.486759,50.396347 
	C27.364260,51.520947 30.108734,52.917599 32.926659,54.653198 
	C32.593037,55.524815 31.874537,56.031612 31.827787,56.594227 
	C31.426620,61.422306 31.146933,66.260483 30.415195,70.951477 
	C29.998426,66.998688 30.077456,63.187889 29.974274,59.382030 
	C29.867464,55.442398 28.597708,52.468071 23.483807,53.006256 
z"/>
<path fill="#BBBDBE" opacity="1.000000" stroke="none" 
	d="
M23.029976,68.228363 
	C22.982529,67.468582 23.004616,67.044350 23.099186,66.309616 
	C25.697311,66.750305 28.327902,67.411865 27.653393,72.030426 
	C25.753151,70.583923 24.426332,69.573929 23.029976,68.228363 
z"/>
<path fill="#BCBEC6" opacity="1.000000" stroke="none" 
	d="
M9.972439,18.302454 
	C10.001818,17.054705 10.136752,16.137861 10.585415,15.071056 
	C17.396282,19.000132 23.844687,23.159826 30.409744,27.126453 
	C34.058342,29.330944 37.901512,31.213413 41.911427,33.716545 
	C42.106209,35.133160 42.046551,36.074249 41.986893,37.015339 
	C31.350594,30.888012 20.714296,24.760685 9.972439,18.302454 
z"/>
<path fill="#888A92" opacity="1.000000" stroke="none" 
	d="
M42.350243,36.993458 
	C42.046551,36.074249 42.106209,35.133160 42.277004,33.866432 
	C52.954311,27.961552 63.520481,22.382311 74.447052,16.888645 
	C75.015236,16.988136 75.223030,17.002056 75.734100,17.090832 
	C72.997955,19.335888 70.110573,21.770273 66.889114,23.624136 
	C58.912014,28.214743 50.782104,32.539814 42.350243,36.993458 
z"/>
<path fill="#1B1B1A" opacity="1.000000" stroke="none" 
	d="
M25.010420,18.574749 
	C31.399454,15.185346 37.740906,11.700140 44.216064,8.484145 
	C45.576260,7.808583 47.428017,8.122748 49.483898,8.391702 
	C47.215694,10.274971 44.516857,11.747390 41.429070,13.432010 
	C42.931156,14.538674 43.960629,15.297140 44.963818,16.354517 
	C44.910133,16.851583 44.882729,17.049742 44.489544,17.156511 
	C40.713062,14.169154 37.409035,14.889882 34.041134,17.229925 
	C32.095604,18.581697 29.994287,19.709255 27.963089,20.937729 
	C27.963089,20.937729 27.843029,20.748856 27.535713,20.532440 
	C26.819572,20.213022 26.410744,20.110018 26.001917,20.007013 
	C26.001917,20.007013 25.999771,19.998028 25.763266,19.633995 
	C25.354649,19.038225 25.182535,18.806486 25.010420,18.574749 
z"/>
<path fill="#131312" opacity="1.000000" stroke="none" 
	d="
M44.855324,17.247900 
	C44.882729,17.049742 44.910133,16.851583 45.358135,16.372454 
	C48.516384,14.728798 51.254028,13.366115 54.333084,12.011074 
	C55.356903,12.038459 56.039314,12.058202 56.721725,12.077945 
	C56.603462,13.069474 56.828442,14.668697 56.314194,14.959163 
	C50.762840,18.094765 45.190781,21.233763 39.399357,23.879206 
	C37.722511,24.645163 35.325172,23.833797 33.534531,23.339043 
	C37.492393,21.037672 41.173859,19.142786 44.855324,17.247900 
z"/>
<path fill="#C9C9E7" opacity="1.000000" stroke="none" 
	d="
M44.489544,17.156511 
	C41.173859,19.142786 37.492393,21.037672 33.443027,22.988997 
	C31.474102,22.527136 29.873079,22.008837 28.117571,21.214132 
	C29.994287,19.709255 32.095604,18.581697 34.041134,17.229925 
	C37.409035,14.889882 40.713062,14.169154 44.489544,17.156511 
z"/>
<path fill="#CACAE9" opacity="1.000000" stroke="none" 
	d="
M53.991676,12.003431 
	C51.254028,13.366115 48.516384,14.728798 45.384418,16.073544 
	C43.960629,15.297140 42.931156,14.538674 41.429070,13.432010 
	C44.516857,11.747390 47.215694,10.274971 49.829185,8.445387 
	C51.031158,8.531218 52.318474,8.974212 53.797493,9.715227 
	C53.989193,10.013247 53.852455,10.156732 53.524673,10.160666 
	C53.016911,10.450458 52.836933,10.736314 52.656952,11.022169 
	C53.124851,11.019027 53.592751,11.015885 54.022091,10.986756 
	C53.983532,10.960769 53.913673,10.899384 53.686935,11.192793 
	C53.637363,11.658612 53.814522,11.831022 53.991676,12.003431 
z"/>
<path fill="#C9C9E7" opacity="1.000000" stroke="none" 
	d="
M24.841589,18.457897 
	C25.182535,18.806486 25.354649,19.038225 25.758301,19.635794 
	C25.222448,19.603880 24.455055,19.206135 23.687660,18.808388 
	C24.016027,18.652609 24.344393,18.496828 24.841589,18.457897 
z"/>
<path fill="#1F1F1F" opacity="1.000000" stroke="none" 
	d="
M54.333084,12.011073 
	C53.814522,11.831022 53.637363,11.658612 54.046722,11.204559 
	C55.105888,11.005759 55.578537,11.088601 56.051186,11.171442 
	C56.094074,11.450422 56.244423,11.647328 56.611980,11.920052 
	C56.039314,12.058202 55.356903,12.038459 54.333084,12.011073 
z"/>
<path fill="#CACAE9" opacity="1.000000" stroke="none" 
	d="
M55.883060,10.920382 
	C55.578537,11.088601 55.105888,11.005759 54.273457,10.911151 
	C53.913673,10.899384 53.983532,10.960769 53.988358,10.768442 
	C53.993179,10.576116 53.852455,10.156732 53.852455,10.156732 
	C53.852455,10.156732 53.989193,10.013247 54.058319,9.940683 
	C54.656612,10.135187 55.185772,10.402254 55.883060,10.920382 
z"/>
<path fill="#C9C9E7" opacity="1.000000" stroke="none" 
	d="
M26.222565,20.230362 
	C26.410744,20.110018 26.819572,20.213022 27.429508,20.567684 
	C27.234816,20.697464 26.839014,20.575586 26.222565,20.230362 
z"/>
<path fill="#1F1F1F" opacity="1.000000" stroke="none" 
	d="
M53.524673,10.160666 
	C53.852455,10.156732 53.993179,10.576116 54.026917,10.794430 
	C53.592751,11.015885 53.124851,11.019027 52.656952,11.022169 
	C52.836933,10.736314 53.016911,10.450458 53.524673,10.160666 
z"/>
</svg>